<?xml version="1.0" encoding="utf-8" standalone="no"?>
<!DOCTYPE svg PUBLIC "-//W3C//DTD SVG 1.1//EN"
  "http://www.w3.org/Graphics/SVG/1.1/DTD/svg11.dtd">
<!-- Created with matplotlib (https://matplotlib.org/) -->
<svg height="248.518125pt" version="1.1" viewBox="0 0 370.942187 248.518125" width="370.942187pt" xmlns="http://www.w3.org/2000/svg" xmlns:xlink="http://www.w3.org/1999/xlink">
 <defs>
  <style type="text/css">
*{stroke-linecap:butt;stroke-linejoin:round;}
  </style>
 </defs>
 <g id="figure_1">
  <g id="patch_1">
   <path d="M 0 248.518125 
L 370.942187 248.518125 
L 370.942187 0 
L 0 0 
z
" style="fill:none;"/>
  </g>
  <g id="axes_1">
   <g id="patch_2">
    <path d="M 28.942188 224.64 
L 363.742188 224.64 
L 363.742188 7.2 
L 28.942188 7.2 
z
" style="fill:none;"/>
   </g>
   <g id="PathCollection_1">
    <defs>
     <path d="M 0 3 
C 0.795609 3 1.55874 2.683901 2.12132 2.12132 
C 2.683901 1.55874 3 0.795609 3 0 
C 3 -0.795609 2.683901 -1.55874 2.12132 -2.12132 
C 1.55874 -2.683901 0.795609 -3 0 -3 
C -0.795609 -3 -1.55874 -2.683901 -2.12132 -2.12132 
C -2.683901 -1.55874 -3 -0.795609 -3 0 
C -3 0.795609 -2.683901 1.55874 -2.12132 2.12132 
C -1.55874 2.683901 -0.795609 3 0 3 
z
" id="C0_0_5a27003f9a"/>
    </defs>
    <g clip-path="url(#p662564f0bf)">
     <use style="fill:#21918c;stroke:#21918c;" x="305.79186" xlink:href="#C0_0_5a27003f9a" y="48.348491"/>
    </g>
    <g clip-path="url(#p662564f0bf)">
     <use style="fill:#21918c;stroke:#21918c;" x="299.78604" xlink:href="#C0_0_5a27003f9a" y="78.105932"/>
    </g>
    <g clip-path="url(#p662564f0bf)">
     <use style="fill:#21918c;stroke:#21918c;" x="317.780726" xlink:href="#C0_0_5a27003f9a" y="55.225464"/>
    </g>
    <g clip-path="url(#p662564f0bf)">
     <use style="fill:#21918c;stroke:#21918c;" x="305.306659" xlink:href="#C0_0_5a27003f9a" y="42.663945"/>
    </g>
    <g clip-path="url(#p662564f0bf)">
     <use style="fill:#21918c;stroke:#21918c;" x="290.385706" xlink:href="#C0_0_5a27003f9a" y="79.627214"/>
    </g>
    <g clip-path="url(#p662564f0bf)">
     <use style="fill:#21918c;stroke:#21918c;" x="311.285922" xlink:href="#C0_0_5a27003f9a" y="47.631179"/>
    </g>
    <g clip-path="url(#p662564f0bf)">
     <use style="fill:#21918c;stroke:#21918c;" x="333.237609" xlink:href="#C0_0_5a27003f9a" y="46.970885"/>
    </g>
    <g clip-path="url(#p662564f0bf)">
     <use style="fill:#21918c;stroke:#21918c;" x="324.923799" xlink:href="#C0_0_5a27003f9a" y="41.911926"/>
    </g>
    <g clip-path="url(#p662564f0bf)">
     <use style="fill:#21918c;stroke:#21918c;" x="286.470903" xlink:href="#C0_0_5a27003f9a" y="77.645978"/>
    </g>
    <g clip-path="url(#p662564f0bf)">
     <use style="fill:#21918c;stroke:#21918c;" x="273.387398" xlink:href="#C0_0_5a27003f9a" y="67.717029"/>
    </g>
    <g clip-path="url(#p662564f0bf)">
     <use style="fill:#21918c;stroke:#21918c;" x="288.345097" xlink:href="#C0_0_5a27003f9a" y="63.435632"/>
    </g>
    <g clip-path="url(#p662564f0bf)">
     <use style="fill:#21918c;stroke:#21918c;" x="303.82581" xlink:href="#C0_0_5a27003f9a" y="77.373889"/>
    </g>
    <g clip-path="url(#p662564f0bf)">
     <use style="fill:#21918c;stroke:#21918c;" x="248.70564" xlink:href="#C0_0_5a27003f9a" y="22.082644"/>
    </g>
    <g clip-path="url(#p662564f0bf)">
     <use style="fill:#21918c;stroke:#21918c;" x="297.766821" xlink:href="#C0_0_5a27003f9a" y="64.566014"/>
    </g>
    <g clip-path="url(#p662564f0bf)">
     <use style="fill:#21918c;stroke:#21918c;" x="273.841862" xlink:href="#C0_0_5a27003f9a" y="48.888462"/>
    </g>
    <g clip-path="url(#p662564f0bf)">
     <use style="fill:#21918c;stroke:#21918c;" x="285.806297" xlink:href="#C0_0_5a27003f9a" y="60.0552"/>
    </g>
    <g clip-path="url(#p662564f0bf)">
     <use style="fill:#21918c;stroke:#21918c;" x="290.185626" xlink:href="#C0_0_5a27003f9a" y="25.045561"/>
    </g>
    <g clip-path="url(#p662564f0bf)">
     <use style="fill:#21918c;stroke:#21918c;" x="295.49553" xlink:href="#C0_0_5a27003f9a" y="30.046227"/>
    </g>
    <g clip-path="url(#p662564f0bf)">
     <use style="fill:#21918c;stroke:#21918c;" x="312.451412" xlink:href="#C0_0_5a27003f9a" y="43.103405"/>
    </g>
    <g clip-path="url(#p662564f0bf)">
     <use style="fill:#21918c;stroke:#21918c;" x="327.146731" xlink:href="#C0_0_5a27003f9a" y="97.020388"/>
    </g>
    <g clip-path="url(#p662564f0bf)">
     <use style="fill:#21918c;stroke:#21918c;" x="299.869201" xlink:href="#C0_0_5a27003f9a" y="54.151955"/>
    </g>
    <g clip-path="url(#p662564f0bf)">
     <use style="fill:#21918c;stroke:#21918c;" x="334.692586" xlink:href="#C0_0_5a27003f9a" y="42.146772"/>
    </g>
    <g clip-path="url(#p662564f0bf)">
     <use style="fill:#21918c;stroke:#21918c;" x="287.368639" xlink:href="#C0_0_5a27003f9a" y="36.059666"/>
    </g>
    <g clip-path="url(#p662564f0bf)">
     <use style="fill:#21918c;stroke:#21918c;" x="311.05101" xlink:href="#C0_0_5a27003f9a" y="66.884658"/>
    </g>
    <g clip-path="url(#p662564f0bf)">
     <use style="fill:#21918c;stroke:#21918c;" x="323.907962" xlink:href="#C0_0_5a27003f9a" y="20.511935"/>
    </g>
    <g clip-path="url(#p662564f0bf)">
     <use style="fill:#21918c;stroke:#21918c;" x="305.053046" xlink:href="#C0_0_5a27003f9a" y="80.236722"/>
    </g>
    <g clip-path="url(#p662564f0bf)">
     <use style="fill:#21918c;stroke:#21918c;" x="285.54467" xlink:href="#C0_0_5a27003f9a" y="67.713712"/>
    </g>
    <g clip-path="url(#p662564f0bf)">
     <use style="fill:#21918c;stroke:#21918c;" x="281.393202" xlink:href="#C0_0_5a27003f9a" y="37.36939"/>
    </g>
    <g clip-path="url(#p662564f0bf)">
     <use style="fill:#21918c;stroke:#21918c;" x="292.201265" xlink:href="#C0_0_5a27003f9a" y="54.208485"/>
    </g>
    <g clip-path="url(#p662564f0bf)">
     <use style="fill:#21918c;stroke:#21918c;" x="307.992256" xlink:href="#C0_0_5a27003f9a" y="17.083636"/>
    </g>
    <g clip-path="url(#p662564f0bf)">
     <use style="fill:#21918c;stroke:#21918c;" x="279.345891" xlink:href="#C0_0_5a27003f9a" y="51.557842"/>
    </g>
    <g clip-path="url(#p662564f0bf)">
     <use style="fill:#21918c;stroke:#21918c;" x="297.990812" xlink:href="#C0_0_5a27003f9a" y="67.175201"/>
    </g>
    <g clip-path="url(#p662564f0bf)">
     <use style="fill:#21918c;stroke:#21918c;" x="299.154323" xlink:href="#C0_0_5a27003f9a" y="62.316725"/>
    </g>
    <g clip-path="url(#p662564f0bf)">
     <use style="fill:#21918c;stroke:#21918c;" x="315.461252" xlink:href="#C0_0_5a27003f9a" y="75.878969"/>
    </g>
    <g clip-path="url(#p662564f0bf)">
     <use style="fill:#21918c;stroke:#21918c;" x="307.863305" xlink:href="#C0_0_5a27003f9a" y="79.424207"/>
    </g>
    <g clip-path="url(#p662564f0bf)">
     <use style="fill:#21918c;stroke:#21918c;" x="311.140983" xlink:href="#C0_0_5a27003f9a" y="43.159303"/>
    </g>
    <g clip-path="url(#p662564f0bf)">
     <use style="fill:#21918c;stroke:#21918c;" x="287.633391" xlink:href="#C0_0_5a27003f9a" y="44.095259"/>
    </g>
    <g clip-path="url(#p662564f0bf)">
     <use style="fill:#21918c;stroke:#21918c;" x="299.844069" xlink:href="#C0_0_5a27003f9a" y="30.536619"/>
    </g>
    <g clip-path="url(#p662564f0bf)">
     <use style="fill:#21918c;stroke:#21918c;" x="321.12454" xlink:href="#C0_0_5a27003f9a" y="69.482734"/>
    </g>
    <g clip-path="url(#p662564f0bf)">
     <use style="fill:#21918c;stroke:#21918c;" x="337.650078" xlink:href="#C0_0_5a27003f9a" y="23.037887"/>
    </g>
    <g clip-path="url(#p662564f0bf)">
     <use style="fill:#21918c;stroke:#21918c;" x="273.535449" xlink:href="#C0_0_5a27003f9a" y="60.602857"/>
    </g>
    <g clip-path="url(#p662564f0bf)">
     <use style="fill:#21918c;stroke:#21918c;" x="338.127418" xlink:href="#C0_0_5a27003f9a" y="25.217842"/>
    </g>
    <g clip-path="url(#p662564f0bf)">
     <use style="fill:#21918c;stroke:#21918c;" x="334.213023" xlink:href="#C0_0_5a27003f9a" y="63.366272"/>
    </g>
    <g clip-path="url(#p662564f0bf)">
     <use style="fill:#21918c;stroke:#21918c;" x="321.062485" xlink:href="#C0_0_5a27003f9a" y="69.119295"/>
    </g>
    <g clip-path="url(#p662564f0bf)">
     <use style="fill:#21918c;stroke:#21918c;" x="309.023228" xlink:href="#C0_0_5a27003f9a" y="50.393426"/>
    </g>
    <g clip-path="url(#p662564f0bf)">
     <use style="fill:#21918c;stroke:#21918c;" x="295.550907" xlink:href="#C0_0_5a27003f9a" y="35.537167"/>
    </g>
    <g clip-path="url(#p662564f0bf)">
     <use style="fill:#21918c;stroke:#21918c;" x="336.825252" xlink:href="#C0_0_5a27003f9a" y="52.080686"/>
    </g>
    <g clip-path="url(#p662564f0bf)">
     <use style="fill:#21918c;stroke:#21918c;" x="348.524006" xlink:href="#C0_0_5a27003f9a" y="66.269282"/>
    </g>
    <g clip-path="url(#p662564f0bf)">
     <use style="fill:#21918c;stroke:#21918c;" x="344.829148" xlink:href="#C0_0_5a27003f9a" y="80.63183"/>
    </g>
    <g clip-path="url(#p662564f0bf)">
     <use style="fill:#21918c;stroke:#21918c;" x="333.496251" xlink:href="#C0_0_5a27003f9a" y="81.777892"/>
    </g>
    <g clip-path="url(#p662564f0bf)">
     <use style="fill:#440154;stroke:#440154;" x="267.985791" xlink:href="#C0_0_5a27003f9a" y="174.664162"/>
    </g>
    <g clip-path="url(#p662564f0bf)">
     <use style="fill:#440154;stroke:#440154;" x="279.330313" xlink:href="#C0_0_5a27003f9a" y="167.589389"/>
    </g>
    <g clip-path="url(#p662564f0bf)">
     <use style="fill:#440154;stroke:#440154;" x="252.44971" xlink:href="#C0_0_5a27003f9a" y="185.323393"/>
    </g>
    <g clip-path="url(#p662564f0bf)">
     <use style="fill:#440154;stroke:#440154;" x="231.251204" xlink:href="#C0_0_5a27003f9a" y="178.880724"/>
    </g>
    <g clip-path="url(#p662564f0bf)">
     <use style="fill:#440154;stroke:#440154;" x="276.612668" xlink:href="#C0_0_5a27003f9a" y="169.395105"/>
    </g>
    <g clip-path="url(#p662564f0bf)">
     <use style="fill:#440154;stroke:#440154;" x="226.452114" xlink:href="#C0_0_5a27003f9a" y="197.406727"/>
    </g>
    <g clip-path="url(#p662564f0bf)">
     <use style="fill:#440154;stroke:#440154;" x="239.666985" xlink:href="#C0_0_5a27003f9a" y="163.461133"/>
    </g>
    <g clip-path="url(#p662564f0bf)">
     <use style="fill:#440154;stroke:#440154;" x="270.742199" xlink:href="#C0_0_5a27003f9a" y="171.191903"/>
    </g>
    <g clip-path="url(#p662564f0bf)">
     <use style="fill:#440154;stroke:#440154;" x="203.863537" xlink:href="#C0_0_5a27003f9a" y="191.711522"/>
    </g>
    <g clip-path="url(#p662564f0bf)">
     <use style="fill:#440154;stroke:#440154;" x="265.276476" xlink:href="#C0_0_5a27003f9a" y="214.756364"/>
    </g>
    <g clip-path="url(#p662564f0bf)">
     <use style="fill:#440154;stroke:#440154;" x="242.728354" xlink:href="#C0_0_5a27003f9a" y="159.424918"/>
    </g>
    <g clip-path="url(#p662564f0bf)">
     <use style="fill:#440154;stroke:#440154;" x="258.822148" xlink:href="#C0_0_5a27003f9a" y="174.831747"/>
    </g>
    <g clip-path="url(#p662564f0bf)">
     <use style="fill:#440154;stroke:#440154;" x="254.513332" xlink:href="#C0_0_5a27003f9a" y="179.24917"/>
    </g>
    <g clip-path="url(#p662564f0bf)">
     <use style="fill:#440154;stroke:#440154;" x="260.984571" xlink:href="#C0_0_5a27003f9a" y="173.664229"/>
    </g>
    <g clip-path="url(#p662564f0bf)">
     <use style="fill:#440154;stroke:#440154;" x="272.446197" xlink:href="#C0_0_5a27003f9a" y="134.65224"/>
    </g>
    <g clip-path="url(#p662564f0bf)">
     <use style="fill:#440154;stroke:#440154;" x="238.611761" xlink:href="#C0_0_5a27003f9a" y="170.122419"/>
    </g>
    <g clip-path="url(#p662564f0bf)">
     <use style="fill:#440154;stroke:#440154;" x="289.375975" xlink:href="#C0_0_5a27003f9a" y="167.529637"/>
    </g>
    <g clip-path="url(#p662564f0bf)">
     <use style="fill:#440154;stroke:#440154;" x="273.189761" xlink:href="#C0_0_5a27003f9a" y="197.438993"/>
    </g>
    <g clip-path="url(#p662564f0bf)">
     <use style="fill:#440154;stroke:#440154;" x="275.929954" xlink:href="#C0_0_5a27003f9a" y="137.86683"/>
    </g>
    <g clip-path="url(#p662564f0bf)">
     <use style="fill:#440154;stroke:#440154;" x="283.41015" xlink:href="#C0_0_5a27003f9a" y="151.738271"/>
    </g>
    <g clip-path="url(#p662564f0bf)">
     <use style="fill:#440154;stroke:#440154;" x="274.622167" xlink:href="#C0_0_5a27003f9a" y="148.897905"/>
    </g>
    <g clip-path="url(#p662564f0bf)">
     <use style="fill:#440154;stroke:#440154;" x="275.938014" xlink:href="#C0_0_5a27003f9a" y="168.269849"/>
    </g>
    <g clip-path="url(#p662564f0bf)">
     <use style="fill:#440154;stroke:#440154;" x="258.037489" xlink:href="#C0_0_5a27003f9a" y="151.754106"/>
    </g>
    <g clip-path="url(#p662564f0bf)">
     <use style="fill:#440154;stroke:#440154;" x="223.042449" xlink:href="#C0_0_5a27003f9a" y="162.12575"/>
    </g>
    <g clip-path="url(#p662564f0bf)">
     <use style="fill:#440154;stroke:#440154;" x="253.131026" xlink:href="#C0_0_5a27003f9a" y="157.52173"/>
    </g>
    <g clip-path="url(#p662564f0bf)">
     <use style="fill:#440154;stroke:#440154;" x="238.35216" xlink:href="#C0_0_5a27003f9a" y="172.068466"/>
    </g>
    <g clip-path="url(#p662564f0bf)">
     <use style="fill:#440154;stroke:#440154;" x="223.136369" xlink:href="#C0_0_5a27003f9a" y="197.188403"/>
    </g>
    <g clip-path="url(#p662564f0bf)">
     <use style="fill:#440154;stroke:#440154;" x="262.296876" xlink:href="#C0_0_5a27003f9a" y="149.621658"/>
    </g>
    <g clip-path="url(#p662564f0bf)">
     <use style="fill:#440154;stroke:#440154;" x="243.033295" xlink:href="#C0_0_5a27003f9a" y="205.951462"/>
    </g>
    <g clip-path="url(#p662564f0bf)">
     <use style="fill:#440154;stroke:#440154;" x="232.289162" xlink:href="#C0_0_5a27003f9a" y="173.73611"/>
    </g>
    <g clip-path="url(#p662564f0bf)">
     <use style="fill:#440154;stroke:#440154;" x="231.981769" xlink:href="#C0_0_5a27003f9a" y="173.063033"/>
    </g>
    <g clip-path="url(#p662564f0bf)">
     <use style="fill:#440154;stroke:#440154;" x="262.528977" xlink:href="#C0_0_5a27003f9a" y="188.996353"/>
    </g>
    <g clip-path="url(#p662564f0bf)">
     <use style="fill:#440154;stroke:#440154;" x="264.631307" xlink:href="#C0_0_5a27003f9a" y="157.522983"/>
    </g>
    <g clip-path="url(#p662564f0bf)">
     <use style="fill:#440154;stroke:#440154;" x="287.081017" xlink:href="#C0_0_5a27003f9a" y="172.983346"/>
    </g>
    <g clip-path="url(#p662564f0bf)">
     <use style="fill:#440154;stroke:#440154;" x="255.952549" xlink:href="#C0_0_5a27003f9a" y="177.478963"/>
    </g>
    <g clip-path="url(#p662564f0bf)">
     <use style="fill:#440154;stroke:#440154;" x="280.544515" xlink:href="#C0_0_5a27003f9a" y="159.295876"/>
    </g>
    <g clip-path="url(#p662564f0bf)">
     <use style="fill:#440154;stroke:#440154;" x="288.939991" xlink:href="#C0_0_5a27003f9a" y="178.233699"/>
    </g>
    <g clip-path="url(#p662564f0bf)">
     <use style="fill:#440154;stroke:#440154;" x="283.067778" xlink:href="#C0_0_5a27003f9a" y="142.777164"/>
    </g>
    <g clip-path="url(#p662564f0bf)">
     <use style="fill:#440154;stroke:#440154;" x="201.181021" xlink:href="#C0_0_5a27003f9a" y="162.496207"/>
    </g>
    <g clip-path="url(#p662564f0bf)">
     <use style="fill:#440154;stroke:#440154;" x="284.89672" xlink:href="#C0_0_5a27003f9a" y="178.191011"/>
    </g>
    <g clip-path="url(#p662564f0bf)">
     <use style="fill:#440154;stroke:#440154;" x="264.187525" xlink:href="#C0_0_5a27003f9a" y="206.128318"/>
    </g>
    <g clip-path="url(#p662564f0bf)">
     <use style="fill:#440154;stroke:#440154;" x="266.147685" xlink:href="#C0_0_5a27003f9a" y="194.030871"/>
    </g>
    <g clip-path="url(#p662564f0bf)">
     <use style="fill:#440154;stroke:#440154;" x="264.923765" xlink:href="#C0_0_5a27003f9a" y="148.519767"/>
    </g>
    <g clip-path="url(#p662564f0bf)">
     <use style="fill:#440154;stroke:#440154;" x="265.19233" xlink:href="#C0_0_5a27003f9a" y="170.137683"/>
    </g>
    <g clip-path="url(#p662564f0bf)">
     <use style="fill:#440154;stroke:#440154;" x="263.716867" xlink:href="#C0_0_5a27003f9a" y="174.556942"/>
    </g>
    <g clip-path="url(#p662564f0bf)">
     <use style="fill:#440154;stroke:#440154;" x="247.916405" xlink:href="#C0_0_5a27003f9a" y="137.944516"/>
    </g>
    <g clip-path="url(#p662564f0bf)">
     <use style="fill:#440154;stroke:#440154;" x="211.981376" xlink:href="#C0_0_5a27003f9a" y="193.553749"/>
    </g>
    <g clip-path="url(#p662564f0bf)">
     <use style="fill:#440154;stroke:#440154;" x="253.739688" xlink:href="#C0_0_5a27003f9a" y="180.306834"/>
    </g>
    <g clip-path="url(#p662564f0bf)">
     <use style="fill:#440154;stroke:#440154;" x="237.55513" xlink:href="#C0_0_5a27003f9a" y="178.15784"/>
    </g>
    <g clip-path="url(#p662564f0bf)">
     <use style="fill:#440154;stroke:#440154;" x="281.437198" xlink:href="#C0_0_5a27003f9a" y="158.032071"/>
    </g>
    <g clip-path="url(#p662564f0bf)">
     <use style="fill:#fde725;stroke:#fde725;" x="101.061189" xlink:href="#C0_0_5a27003f9a" y="127.326738"/>
    </g>
    <g clip-path="url(#p662564f0bf)">
     <use style="fill:#fde725;stroke:#fde725;" x="102.228586" xlink:href="#C0_0_5a27003f9a" y="131.902302"/>
    </g>
    <g clip-path="url(#p662564f0bf)">
     <use style="fill:#fde725;stroke:#fde725;" x="79.127922" xlink:href="#C0_0_5a27003f9a" y="110.897805"/>
    </g>
    <g clip-path="url(#p662564f0bf)">
     <use style="fill:#fde725;stroke:#fde725;" x="133.506017" xlink:href="#C0_0_5a27003f9a" y="148.680646"/>
    </g>
    <g clip-path="url(#p662564f0bf)">
     <use style="fill:#fde725;stroke:#fde725;" x="135.294705" xlink:href="#C0_0_5a27003f9a" y="115.86988"/>
    </g>
    <g clip-path="url(#p662564f0bf)">
     <use style="fill:#fde725;stroke:#fde725;" x="105.42072" xlink:href="#C0_0_5a27003f9a" y="114.957"/>
    </g>
    <g clip-path="url(#p662564f0bf)">
     <use style="fill:#fde725;stroke:#fde725;" x="120.32181" xlink:href="#C0_0_5a27003f9a" y="143.854174"/>
    </g>
    <g clip-path="url(#p662564f0bf)">
     <use style="fill:#fde725;stroke:#fde725;" x="86.407143" xlink:href="#C0_0_5a27003f9a" y="128.061618"/>
    </g>
    <g clip-path="url(#p662564f0bf)">
     <use style="fill:#fde725;stroke:#fde725;" x="105.527021" xlink:href="#C0_0_5a27003f9a" y="146.953357"/>
    </g>
    <g clip-path="url(#p662564f0bf)">
     <use style="fill:#fde725;stroke:#fde725;" x="148.614063" xlink:href="#C0_0_5a27003f9a" y="86.580133"/>
    </g>
    <g clip-path="url(#p662564f0bf)">
     <use style="fill:#fde725;stroke:#fde725;" x="119.678701" xlink:href="#C0_0_5a27003f9a" y="144.54698"/>
    </g>
    <g clip-path="url(#p662564f0bf)">
     <use style="fill:#fde725;stroke:#fde725;" x="170.332994" xlink:href="#C0_0_5a27003f9a" y="139.775274"/>
    </g>
    <g clip-path="url(#p662564f0bf)">
     <use style="fill:#fde725;stroke:#fde725;" x="98.180802" xlink:href="#C0_0_5a27003f9a" y="151.421367"/>
    </g>
    <g clip-path="url(#p662564f0bf)">
     <use style="fill:#fde725;stroke:#fde725;" x="130.033807" xlink:href="#C0_0_5a27003f9a" y="137.742539"/>
    </g>
    <g clip-path="url(#p662564f0bf)">
     <use style="fill:#fde725;stroke:#fde725;" x="111.963121" xlink:href="#C0_0_5a27003f9a" y="131.275888"/>
    </g>
    <g clip-path="url(#p662564f0bf)">
     <use style="fill:#fde725;stroke:#fde725;" x="129.696833" xlink:href="#C0_0_5a27003f9a" y="116.571724"/>
    </g>
    <g clip-path="url(#p662564f0bf)">
     <use style="fill:#fde725;stroke:#fde725;" x="116.349113" xlink:href="#C0_0_5a27003f9a" y="142.767027"/>
    </g>
    <g clip-path="url(#p662564f0bf)">
     <use style="fill:#fde725;stroke:#fde725;" x="103.444954" xlink:href="#C0_0_5a27003f9a" y="134.695001"/>
    </g>
    <g clip-path="url(#p662564f0bf)">
     <use style="fill:#fde725;stroke:#fde725;" x="96.307464" xlink:href="#C0_0_5a27003f9a" y="158.085794"/>
    </g>
    <g clip-path="url(#p662564f0bf)">
     <use style="fill:#440154;stroke:#440154;" x="187.935089" xlink:href="#C0_0_5a27003f9a" y="146.889692"/>
    </g>
    <g clip-path="url(#p662564f0bf)">
     <use style="fill:#fde725;stroke:#fde725;" x="114.715471" xlink:href="#C0_0_5a27003f9a" y="78.787744"/>
    </g>
    <g clip-path="url(#p662564f0bf)">
     <use style="fill:#fde725;stroke:#fde725;" x="69.542482" xlink:href="#C0_0_5a27003f9a" y="111.374498"/>
    </g>
    <g clip-path="url(#p662564f0bf)">
     <use style="fill:#fde725;stroke:#fde725;" x="101.409065" xlink:href="#C0_0_5a27003f9a" y="146.015838"/>
    </g>
    <g clip-path="url(#p662564f0bf)">
     <use style="fill:#fde725;stroke:#fde725;" x="132.310847" xlink:href="#C0_0_5a27003f9a" y="156.582581"/>
    </g>
    <g clip-path="url(#p662564f0bf)">
     <use style="fill:#fde725;stroke:#fde725;" x="104.870261" xlink:href="#C0_0_5a27003f9a" y="149.70599"/>
    </g>
    <g clip-path="url(#p662564f0bf)">
     <use style="fill:#fde725;stroke:#fde725;" x="148.206321" xlink:href="#C0_0_5a27003f9a" y="131.576463"/>
    </g>
    <g clip-path="url(#p662564f0bf)">
     <use style="fill:#fde725;stroke:#fde725;" x="139.866216" xlink:href="#C0_0_5a27003f9a" y="130.504178"/>
    </g>
    <g clip-path="url(#p662564f0bf)">
     <use style="fill:#fde725;stroke:#fde725;" x="112.968625" xlink:href="#C0_0_5a27003f9a" y="145.311415"/>
    </g>
    <g clip-path="url(#p662564f0bf)">
     <use style="fill:#fde725;stroke:#fde725;" x="105.517639" xlink:href="#C0_0_5a27003f9a" y="155.616651"/>
    </g>
    <g clip-path="url(#p662564f0bf)">
     <use style="fill:#fde725;stroke:#fde725;" x="93.111995" xlink:href="#C0_0_5a27003f9a" y="104.130697"/>
    </g>
    <g clip-path="url(#p662564f0bf)">
     <use style="fill:#fde725;stroke:#fde725;" x="100.212585" xlink:href="#C0_0_5a27003f9a" y="122.579544"/>
    </g>
    <g clip-path="url(#p662564f0bf)">
     <use style="fill:#fde725;stroke:#fde725;" x="82.20278" xlink:href="#C0_0_5a27003f9a" y="138.283193"/>
    </g>
    <g clip-path="url(#p662564f0bf)">
     <use style="fill:#fde725;stroke:#fde725;" x="144.571409" xlink:href="#C0_0_5a27003f9a" y="135.358063"/>
    </g>
    <g clip-path="url(#p662564f0bf)">
     <use style="fill:#fde725;stroke:#fde725;" x="153.569701" xlink:href="#C0_0_5a27003f9a" y="141.228386"/>
    </g>
    <g clip-path="url(#p662564f0bf)">
     <use style="fill:#fde725;stroke:#fde725;" x="87.257535" xlink:href="#C0_0_5a27003f9a" y="186.966249"/>
    </g>
    <g clip-path="url(#p662564f0bf)">
     <use style="fill:#fde725;stroke:#fde725;" x="88.991837" xlink:href="#C0_0_5a27003f9a" y="128.965958"/>
    </g>
    <g clip-path="url(#p662564f0bf)">
     <use style="fill:#fde725;stroke:#fde725;" x="75.322678" xlink:href="#C0_0_5a27003f9a" y="151.510816"/>
    </g>
    <g clip-path="url(#p662564f0bf)">
     <use style="fill:#fde725;stroke:#fde725;" x="94.065779" xlink:href="#C0_0_5a27003f9a" y="150.221077"/>
    </g>
    <g clip-path="url(#p662564f0bf)">
     <use style="fill:#fde725;stroke:#fde725;" x="44.160369" xlink:href="#C0_0_5a27003f9a" y="143.332941"/>
    </g>
    <g clip-path="url(#p662564f0bf)">
     <use style="fill:#fde725;stroke:#fde725;" x="89.909685" xlink:href="#C0_0_5a27003f9a" y="117.246193"/>
    </g>
    <g clip-path="url(#p662564f0bf)">
     <use style="fill:#fde725;stroke:#fde725;" x="146.726481" xlink:href="#C0_0_5a27003f9a" y="153.411142"/>
    </g>
    <g clip-path="url(#p662564f0bf)">
     <use style="fill:#fde725;stroke:#fde725;" x="108.465248" xlink:href="#C0_0_5a27003f9a" y="158.423948"/>
    </g>
    <g clip-path="url(#p662564f0bf)">
     <use style="fill:#fde725;stroke:#fde725;" x="136.423145" xlink:href="#C0_0_5a27003f9a" y="119.003277"/>
    </g>
    <g clip-path="url(#p662564f0bf)">
     <use style="fill:#fde725;stroke:#fde725;" x="105.127404" xlink:href="#C0_0_5a27003f9a" y="116.826787"/>
    </g>
    <g clip-path="url(#p662564f0bf)">
     <use style="fill:#fde725;stroke:#fde725;" x="157.528776" xlink:href="#C0_0_5a27003f9a" y="149.38956"/>
    </g>
    <g clip-path="url(#p662564f0bf)">
     <use style="fill:#fde725;stroke:#fde725;" x="121.157526" xlink:href="#C0_0_5a27003f9a" y="120.475364"/>
    </g>
    <g clip-path="url(#p662564f0bf)">
     <use style="fill:#fde725;stroke:#fde725;" x="107.619009" xlink:href="#C0_0_5a27003f9a" y="136.706932"/>
    </g>
    <g clip-path="url(#p662564f0bf)">
     <use style="fill:#fde725;stroke:#fde725;" x="175.971373" xlink:href="#C0_0_5a27003f9a" y="125.437896"/>
    </g>
    <g clip-path="url(#p662564f0bf)">
     <use style="fill:#fde725;stroke:#fde725;" x="108.959081" xlink:href="#C0_0_5a27003f9a" y="155.129831"/>
    </g>
    <g clip-path="url(#p662564f0bf)">
     <use style="fill:#fde725;stroke:#fde725;" x="88.070813" xlink:href="#C0_0_5a27003f9a" y="115.334343"/>
    </g>
   </g>
   <g id="matplotlib.axis_1">
    <g id="xtick_1">
     <g id="line2d_1">
      <defs>
       <path d="M 0 0 
L 0 3.5 
" id="m6c70763ae3" style="stroke:#000000;stroke-width:0.8;"/>
      </defs>
      <g>
       <use style="stroke:#000000;stroke-width:0.8;" x="69.930563" xlink:href="#m6c70763ae3" y="224.64"/>
      </g>
     </g>
     <g id="text_1">
      <!-- 1 -->
      <defs>
       <path d="M 12.40625 8.296875 
L 28.515625 8.296875 
L 28.515625 63.921875 
L 10.984375 60.40625 
L 10.984375 69.390625 
L 28.421875 72.90625 
L 38.28125 72.90625 
L 38.28125 8.296875 
L 54.390625 8.296875 
L 54.390625 0 
L 12.40625 0 
z
" id="DejaVuSans-49"/>
      </defs>
      <g transform="translate(66.749313 239.238437)scale(0.1 -0.1)">
       <use xlink:href="#DejaVuSans-49"/>
      </g>
     </g>
    </g>
    <g id="xtick_2">
     <g id="line2d_2">
      <g>
       <use style="stroke:#000000;stroke-width:0.8;" x="116.517089" xlink:href="#m6c70763ae3" y="224.64"/>
      </g>
     </g>
     <g id="text_2">
      <!-- 2 -->
      <defs>
       <path d="M 19.1875 8.296875 
L 53.609375 8.296875 
L 53.609375 0 
L 7.328125 0 
L 7.328125 8.296875 
Q 12.9375 14.109375 22.625 23.890625 
Q 32.328125 33.6875 34.8125 36.53125 
Q 39.546875 41.84375 41.421875 45.53125 
Q 43.3125 49.21875 43.3125 52.78125 
Q 43.3125 58.59375 39.234375 62.25 
Q 35.15625 65.921875 28.609375 65.921875 
Q 23.96875 65.921875 18.8125 64.3125 
Q 13.671875 62.703125 7.8125 59.421875 
L 7.8125 69.390625 
Q 13.765625 71.78125 18.9375 73 
Q 24.125 74.21875 28.421875 74.21875 
Q 39.75 74.21875 46.484375 68.546875 
Q 53.21875 62.890625 53.21875 53.421875 
Q 53.21875 48.921875 51.53125 44.890625 
Q 49.859375 40.875 45.40625 35.40625 
Q 44.1875 33.984375 37.640625 27.21875 
Q 31.109375 20.453125 19.1875 8.296875 
z
" id="DejaVuSans-50"/>
      </defs>
      <g transform="translate(113.335839 239.238437)scale(0.1 -0.1)">
       <use xlink:href="#DejaVuSans-50"/>
      </g>
     </g>
    </g>
    <g id="xtick_3">
     <g id="line2d_3">
      <g>
       <use style="stroke:#000000;stroke-width:0.8;" x="163.103615" xlink:href="#m6c70763ae3" y="224.64"/>
      </g>
     </g>
     <g id="text_3">
      <!-- 3 -->
      <defs>
       <path d="M 40.578125 39.3125 
Q 47.65625 37.796875 51.625 33 
Q 55.609375 28.21875 55.609375 21.1875 
Q 55.609375 10.40625 48.1875 4.484375 
Q 40.765625 -1.421875 27.09375 -1.421875 
Q 22.515625 -1.421875 17.65625 -0.515625 
Q 12.796875 0.390625 7.625 2.203125 
L 7.625 11.71875 
Q 11.71875 9.328125 16.59375 8.109375 
Q 21.484375 6.890625 26.8125 6.890625 
Q 36.078125 6.890625 40.9375 10.546875 
Q 45.796875 14.203125 45.796875 21.1875 
Q 45.796875 27.640625 41.28125 31.265625 
Q 36.765625 34.90625 28.71875 34.90625 
L 20.21875 34.90625 
L 20.21875 43.015625 
L 29.109375 43.015625 
Q 36.375 43.015625 40.234375 45.921875 
Q 44.09375 48.828125 44.09375 54.296875 
Q 44.09375 59.90625 40.109375 62.90625 
Q 36.140625 65.921875 28.71875 65.921875 
Q 24.65625 65.921875 20.015625 65.03125 
Q 15.375 64.15625 9.8125 62.3125 
L 9.8125 71.09375 
Q 15.4375 72.65625 20.34375 73.4375 
Q 25.25 74.21875 29.59375 74.21875 
Q 40.828125 74.21875 47.359375 69.109375 
Q 53.90625 64.015625 53.90625 55.328125 
Q 53.90625 49.265625 50.4375 45.09375 
Q 46.96875 40.921875 40.578125 39.3125 
z
" id="DejaVuSans-51"/>
      </defs>
      <g transform="translate(159.922365 239.238437)scale(0.1 -0.1)">
       <use xlink:href="#DejaVuSans-51"/>
      </g>
     </g>
    </g>
    <g id="xtick_4">
     <g id="line2d_4">
      <g>
       <use style="stroke:#000000;stroke-width:0.8;" x="209.690141" xlink:href="#m6c70763ae3" y="224.64"/>
      </g>
     </g>
     <g id="text_4">
      <!-- 4 -->
      <defs>
       <path d="M 37.796875 64.3125 
L 12.890625 25.390625 
L 37.796875 25.390625 
z
M 35.203125 72.90625 
L 47.609375 72.90625 
L 47.609375 25.390625 
L 58.015625 25.390625 
L 58.015625 17.1875 
L 47.609375 17.1875 
L 47.609375 0 
L 37.796875 0 
L 37.796875 17.1875 
L 4.890625 17.1875 
L 4.890625 26.703125 
z
" id="DejaVuSans-52"/>
      </defs>
      <g transform="translate(206.508891 239.238437)scale(0.1 -0.1)">
       <use xlink:href="#DejaVuSans-52"/>
      </g>
     </g>
    </g>
    <g id="xtick_5">
     <g id="line2d_5">
      <g>
       <use style="stroke:#000000;stroke-width:0.8;" x="256.276667" xlink:href="#m6c70763ae3" y="224.64"/>
      </g>
     </g>
     <g id="text_5">
      <!-- 5 -->
      <defs>
       <path d="M 10.796875 72.90625 
L 49.515625 72.90625 
L 49.515625 64.59375 
L 19.828125 64.59375 
L 19.828125 46.734375 
Q 21.96875 47.46875 24.109375 47.828125 
Q 26.265625 48.1875 28.421875 48.1875 
Q 40.625 48.1875 47.75 41.5 
Q 54.890625 34.8125 54.890625 23.390625 
Q 54.890625 11.625 47.5625 5.09375 
Q 40.234375 -1.421875 26.90625 -1.421875 
Q 22.3125 -1.421875 17.546875 -0.640625 
Q 12.796875 0.140625 7.71875 1.703125 
L 7.71875 11.625 
Q 12.109375 9.234375 16.796875 8.0625 
Q 21.484375 6.890625 26.703125 6.890625 
Q 35.15625 6.890625 40.078125 11.328125 
Q 45.015625 15.765625 45.015625 23.390625 
Q 45.015625 31 40.078125 35.4375 
Q 35.15625 39.890625 26.703125 39.890625 
Q 22.75 39.890625 18.8125 39.015625 
Q 14.890625 38.140625 10.796875 36.28125 
z
" id="DejaVuSans-53"/>
      </defs>
      <g transform="translate(253.095417 239.238437)scale(0.1 -0.1)">
       <use xlink:href="#DejaVuSans-53"/>
      </g>
     </g>
    </g>
    <g id="xtick_6">
     <g id="line2d_6">
      <g>
       <use style="stroke:#000000;stroke-width:0.8;" x="302.863193" xlink:href="#m6c70763ae3" y="224.64"/>
      </g>
     </g>
     <g id="text_6">
      <!-- 6 -->
      <defs>
       <path d="M 33.015625 40.375 
Q 26.375 40.375 22.484375 35.828125 
Q 18.609375 31.296875 18.609375 23.390625 
Q 18.609375 15.53125 22.484375 10.953125 
Q 26.375 6.390625 33.015625 6.390625 
Q 39.65625 6.390625 43.53125 10.953125 
Q 47.40625 15.53125 47.40625 23.390625 
Q 47.40625 31.296875 43.53125 35.828125 
Q 39.65625 40.375 33.015625 40.375 
z
M 52.59375 71.296875 
L 52.59375 62.3125 
Q 48.875 64.0625 45.09375 64.984375 
Q 41.3125 65.921875 37.59375 65.921875 
Q 27.828125 65.921875 22.671875 59.328125 
Q 17.53125 52.734375 16.796875 39.40625 
Q 19.671875 43.65625 24.015625 45.921875 
Q 28.375 48.1875 33.59375 48.1875 
Q 44.578125 48.1875 50.953125 41.515625 
Q 57.328125 34.859375 57.328125 23.390625 
Q 57.328125 12.15625 50.6875 5.359375 
Q 44.046875 -1.421875 33.015625 -1.421875 
Q 20.359375 -1.421875 13.671875 8.265625 
Q 6.984375 17.96875 6.984375 36.375 
Q 6.984375 53.65625 15.1875 63.9375 
Q 23.390625 74.21875 37.203125 74.21875 
Q 40.921875 74.21875 44.703125 73.484375 
Q 48.484375 72.75 52.59375 71.296875 
z
" id="DejaVuSans-54"/>
      </defs>
      <g transform="translate(299.681943 239.238437)scale(0.1 -0.1)">
       <use xlink:href="#DejaVuSans-54"/>
      </g>
     </g>
    </g>
    <g id="xtick_7">
     <g id="line2d_7">
      <g>
       <use style="stroke:#000000;stroke-width:0.8;" x="349.449719" xlink:href="#m6c70763ae3" y="224.64"/>
      </g>
     </g>
     <g id="text_7">
      <!-- 7 -->
      <defs>
       <path d="M 8.203125 72.90625 
L 55.078125 72.90625 
L 55.078125 68.703125 
L 28.609375 0 
L 18.3125 0 
L 43.21875 64.59375 
L 8.203125 64.59375 
z
" id="DejaVuSans-55"/>
      </defs>
      <g transform="translate(346.268469 239.238437)scale(0.1 -0.1)">
       <use xlink:href="#DejaVuSans-55"/>
      </g>
     </g>
    </g>
   </g>
   <g id="matplotlib.axis_2">
    <g id="ytick_1">
     <g id="line2d_8">
      <defs>
       <path d="M 0 0 
L -3.5 0 
" id="md39abeef9a" style="stroke:#000000;stroke-width:0.8;"/>
      </defs>
      <g>
       <use style="stroke:#000000;stroke-width:0.8;" x="28.942188" xlink:href="#md39abeef9a" y="207.18761"/>
      </g>
     </g>
     <g id="text_8">
      <!-- −1 -->
      <defs>
       <path d="M 10.59375 35.5 
L 73.1875 35.5 
L 73.1875 27.203125 
L 10.59375 27.203125 
z
" id="DejaVuSans-8722"/>
      </defs>
      <g transform="translate(7.2 210.986828)scale(0.1 -0.1)">
       <use xlink:href="#DejaVuSans-8722"/>
       <use x="83.789062" xlink:href="#DejaVuSans-49"/>
      </g>
     </g>
    </g>
    <g id="ytick_2">
     <g id="line2d_9">
      <g>
       <use style="stroke:#000000;stroke-width:0.8;" x="28.942188" xlink:href="#md39abeef9a" y="169.17591"/>
      </g>
     </g>
     <g id="text_9">
      <!-- 0 -->
      <defs>
       <path d="M 31.78125 66.40625 
Q 24.171875 66.40625 20.328125 58.90625 
Q 16.5 51.421875 16.5 36.375 
Q 16.5 21.390625 20.328125 13.890625 
Q 24.171875 6.390625 31.78125 6.390625 
Q 39.453125 6.390625 43.28125 13.890625 
Q 47.125 21.390625 47.125 36.375 
Q 47.125 51.421875 43.28125 58.90625 
Q 39.453125 66.40625 31.78125 66.40625 
z
M 31.78125 74.21875 
Q 44.046875 74.21875 50.515625 64.515625 
Q 56.984375 54.828125 56.984375 36.375 
Q 56.984375 17.96875 50.515625 8.265625 
Q 44.046875 -1.421875 31.78125 -1.421875 
Q 19.53125 -1.421875 13.0625 8.265625 
Q 6.59375 17.96875 6.59375 36.375 
Q 6.59375 54.828125 13.0625 64.515625 
Q 19.53125 74.21875 31.78125 74.21875 
z
" id="DejaVuSans-48"/>
      </defs>
      <g transform="translate(15.579688 172.975128)scale(0.1 -0.1)">
       <use xlink:href="#DejaVuSans-48"/>
      </g>
     </g>
    </g>
    <g id="ytick_3">
     <g id="line2d_10">
      <g>
       <use style="stroke:#000000;stroke-width:0.8;" x="28.942188" xlink:href="#md39abeef9a" y="131.164209"/>
      </g>
     </g>
     <g id="text_10">
      <!-- 1 -->
      <g transform="translate(15.579688 134.963428)scale(0.1 -0.1)">
       <use xlink:href="#DejaVuSans-49"/>
      </g>
     </g>
    </g>
    <g id="ytick_4">
     <g id="line2d_11">
      <g>
       <use style="stroke:#000000;stroke-width:0.8;" x="28.942188" xlink:href="#md39abeef9a" y="93.152509"/>
      </g>
     </g>
     <g id="text_11">
      <!-- 2 -->
      <g transform="translate(15.579688 96.951728)scale(0.1 -0.1)">
       <use xlink:href="#DejaVuSans-50"/>
      </g>
     </g>
    </g>
    <g id="ytick_5">
     <g id="line2d_12">
      <g>
       <use style="stroke:#000000;stroke-width:0.8;" x="28.942188" xlink:href="#md39abeef9a" y="55.140809"/>
      </g>
     </g>
     <g id="text_12">
      <!-- 3 -->
      <g transform="translate(15.579688 58.940028)scale(0.1 -0.1)">
       <use xlink:href="#DejaVuSans-51"/>
      </g>
     </g>
    </g>
    <g id="ytick_6">
     <g id="line2d_13">
      <g>
       <use style="stroke:#000000;stroke-width:0.8;" x="28.942188" xlink:href="#md39abeef9a" y="17.129109"/>
      </g>
     </g>
     <g id="text_13">
      <!-- 4 -->
      <g transform="translate(15.579688 20.928328)scale(0.1 -0.1)">
       <use xlink:href="#DejaVuSans-52"/>
      </g>
     </g>
    </g>
   </g>
   <g id="patch_3">
    <path d="M 28.942188 224.64 
L 28.942188 7.2 
" style="fill:none;stroke:#000000;stroke-linecap:square;stroke-linejoin:miter;stroke-width:0.8;"/>
   </g>
   <g id="patch_4">
    <path d="M 363.742188 224.64 
L 363.742188 7.2 
" style="fill:none;stroke:#000000;stroke-linecap:square;stroke-linejoin:miter;stroke-width:0.8;"/>
   </g>
   <g id="patch_5">
    <path d="M 28.942188 224.64 
L 363.742188 224.64 
" style="fill:none;stroke:#000000;stroke-linecap:square;stroke-linejoin:miter;stroke-width:0.8;"/>
   </g>
   <g id="patch_6">
    <path d="M 28.942188 7.2 
L 363.742188 7.2 
" style="fill:none;stroke:#000000;stroke-linecap:square;stroke-linejoin:miter;stroke-width:0.8;"/>
   </g>
  </g>
 </g>
 <defs>
  <clipPath id="p662564f0bf">
   <rect height="217.44" width="334.8" x="28.942188" y="7.2"/>
  </clipPath>
 </defs>
</svg>
